<svg width="84" height="36" viewBox="0 0 108 23" fill="none" xmlns="http://www.w3.org/2000/svg">
<path d="M100.064 22.5601C99.0285 22.5601 98.0969 22.3635 97.2687 21.9701C96.4612 21.556 95.8194 20.997 95.3432 20.293C94.867 19.5891 94.6289 18.8023 94.6289 17.9328C94.6289 16.8147 94.9084 15.9348 95.4674 15.293C96.0471 14.6511 96.9892 14.1957 98.2935 13.9265C99.6186 13.6573 101.42 13.5228 103.697 13.5228H105.095V15.1688H103.728C102.465 15.1688 101.41 15.2102 100.561 15.293C99.7118 15.3758 99.0389 15.5207 98.542 15.7278C98.0451 15.9348 97.6931 16.204 97.4861 16.5352C97.279 16.8665 97.1755 17.2806 97.1755 17.7775C97.1755 18.6264 97.4654 19.3199 98.0451 19.8582C98.6455 20.3966 99.453 20.6657 100.467 20.6657C101.296 20.6657 102.02 20.469 102.641 20.0756C103.283 19.6823 103.78 19.144 104.132 18.4607C104.505 17.7775 104.691 16.9907 104.691 16.1004V12.56C104.691 11.2764 104.432 10.355 103.915 9.79601C103.397 9.21629 102.548 8.92644 101.368 8.92644C100.457 8.92644 99.5772 9.06101 98.7283 9.33017C97.8795 9.57862 97.0099 9.9927 96.1196 10.5724L95.25 8.7401C95.7883 8.36742 96.3991 8.04651 97.0824 7.77735C97.7656 7.48749 98.4799 7.2701 99.2252 7.12517C99.9706 6.98024 100.685 6.90778 101.368 6.90778C102.672 6.90778 103.749 7.12517 104.598 7.55996C105.447 7.97404 106.078 8.61587 106.492 9.48545C106.906 10.3343 107.114 11.4316 107.114 12.7774V22.2806H104.753V18.7713H105.033C104.867 19.558 104.546 20.2309 104.07 20.7899C103.615 21.349 103.045 21.7837 102.362 22.0943C101.679 22.4049 100.913 22.5601 100.064 22.5601Z" fill="black"/>
<path d="M87.7658 22.5601C86.2544 22.5601 84.95 22.2289 83.8527 21.5663C82.7554 20.9038 81.9065 19.9825 81.3061 18.8023C80.7264 17.6015 80.4365 16.2143 80.4365 14.6408C80.4365 13.0466 80.7264 11.6697 81.3061 10.5103C81.9065 9.35087 82.7554 8.46059 83.8527 7.83946C84.95 7.21834 86.2544 6.90778 87.7658 6.90778C88.6975 6.90778 89.6188 7.07341 90.5298 7.40468C91.4408 7.73594 92.1965 8.20179 92.7969 8.80221L91.9274 10.6345C91.3269 10.0548 90.6644 9.63038 89.9397 9.36122C89.2358 9.09207 88.5629 8.95749 87.9211 8.95749C86.3476 8.95749 85.1364 9.45439 84.2875 10.4482C83.4386 11.4213 83.0142 12.8292 83.0142 14.6718C83.0142 16.4731 83.4386 17.9017 84.2875 18.9576C85.1364 19.9928 86.3476 20.5104 87.9211 20.5104C88.5629 20.5104 89.2358 20.3759 89.9397 20.1067C90.6644 19.8375 91.3269 19.4028 91.9274 18.8023L92.7969 20.6347C92.1965 21.2351 91.4305 21.7113 90.4988 22.0632C89.5878 22.3945 88.6768 22.5601 87.7658 22.5601Z" fill="black"/>
<path d="M74.1494 3.42945V0.603333H77.255V3.42945H74.1494ZM74.46 22.2806V7.18727H76.9755V22.2806H74.46Z" fill="black"/>
<path d="M57.1201 22.2807V0.385986H59.6357V10.5414H59.2319C59.6667 9.34055 60.3707 8.43992 61.3438 7.8395C62.3376 7.21837 63.4763 6.90781 64.76 6.90781C65.9608 6.90781 66.9546 7.1252 67.7414 7.55999C68.5488 7.99478 69.1493 8.65731 69.5426 9.54759C69.936 10.4172 70.1327 11.5248 70.1327 12.8706V22.2807H67.6171V13.0259C67.6171 12.0942 67.4929 11.3282 67.2445 10.7277C67.0167 10.1273 66.644 9.68217 66.1264 9.39231C65.6295 9.10245 64.9774 8.95752 64.1699 8.95752C63.2589 8.95752 62.4618 9.15421 61.7786 9.54759C61.0953 9.94097 60.5674 10.4896 60.1947 11.1936C59.822 11.8975 59.6357 12.7257 59.6357 13.6781V22.2807H57.1201Z" fill="black"/>
<path d="M52.628 22.5601C50.8474 22.5601 49.512 22.0839 48.6217 21.1315C47.7314 20.1791 47.2863 18.823 47.2863 17.0632V9.14381H44.3359V7.18726H47.2863V2.55988H49.8018V7.18726H54.5845V9.14381H49.8018V16.8147C49.8018 17.9949 50.0503 18.8955 50.5472 19.5166C51.0441 20.117 51.8516 20.4172 52.9696 20.4172C53.3009 20.4172 53.6321 20.3758 53.9634 20.293C54.2947 20.2102 54.5949 20.1274 54.864 20.0446L55.2988 21.9701C55.0297 22.115 54.6363 22.2496 54.1187 22.3738C53.6011 22.498 53.1042 22.5601 52.628 22.5601Z" fill="black"/>
<path d="M36.0527 22.5601C34.5827 22.5601 33.3094 22.2392 32.2328 21.5974C31.1562 20.9556 30.3177 20.0549 29.7172 18.8955C29.1375 17.7154 28.8477 16.3282 28.8477 14.734C28.8477 13.1397 29.1375 11.7629 29.7172 10.6035C30.3177 9.42334 31.1562 8.51235 32.2328 7.87052C33.3094 7.22869 34.5827 6.90778 36.0527 6.90778C37.5227 6.90778 38.796 7.22869 39.8726 7.87052C40.9493 8.51235 41.7774 9.42334 42.3571 10.6035C42.9576 11.7629 43.2578 13.1397 43.2578 14.734C43.2578 16.3282 42.9576 17.7154 42.3571 18.8955C41.7774 20.0549 40.9493 20.9556 39.8726 21.5974C38.796 22.2392 37.5227 22.5601 36.0527 22.5601ZM36.0527 20.5415C37.4813 20.5415 38.6097 20.0446 39.4379 19.0508C40.2867 18.0363 40.7112 16.587 40.7112 14.7029C40.7112 12.8395 40.2867 11.4109 39.4379 10.4171C38.6097 9.42334 37.4813 8.92644 36.0527 8.92644C34.6448 8.92644 33.5165 9.42334 32.6676 10.4171C31.8187 11.4109 31.3943 12.8395 31.3943 14.7029C31.3943 16.587 31.8187 18.0363 32.6676 19.0508C33.5165 20.0446 34.6448 20.5415 36.0527 20.5415Z" fill="black"/>
<path d="M25.6782 22.5602C24.1461 22.5602 22.9866 22.1047 22.1999 21.1937C21.4338 20.2827 21.0508 18.9784 21.0508 17.2806V0.385986H23.5663V17.0943C23.5663 17.8189 23.6595 18.4297 23.8458 18.9266C24.0529 19.4235 24.3531 19.7962 24.7465 20.0446C25.1399 20.2931 25.6264 20.4173 26.2061 20.4173C26.4546 20.4173 26.6927 20.4069 26.9204 20.3862C27.1689 20.3448 27.3966 20.2931 27.6037 20.231L27.5415 22.3428C27.2103 22.4049 26.8894 22.4567 26.5788 22.4981C26.2889 22.5395 25.9887 22.5602 25.6782 22.5602Z" fill="black"/>
<path d="M10.2796 22.4537C8.1264 22.4537 6.28372 21.9982 4.75161 21.0872C3.2195 20.1762 2.03936 18.8822 1.2112 17.2052C0.403732 15.5281 0 13.5302 0 11.2113C0 8.89245 0.403732 6.90485 1.2112 5.24851C2.03936 3.57147 3.2195 2.27746 4.75161 1.36648C6.28372 0.455493 8.1264 0 10.2796 0C11.791 0 13.1886 0.238099 14.4722 0.714295C15.7559 1.19049 16.8325 1.88408 17.7021 2.79507L16.7083 4.87584C15.7559 3.98556 14.7621 3.34373 13.7269 2.95035C12.7124 2.53626 11.584 2.32922 10.3417 2.32922C7.87795 2.32922 5.99386 3.10563 4.6895 4.65845C3.38514 6.21126 2.73295 8.39555 2.73295 11.2113C2.73295 14.0271 3.38514 16.2217 4.6895 17.7953C5.99386 19.3481 7.87795 20.1245 10.3417 20.1245C11.584 20.1245 12.7124 19.9278 13.7269 19.5344C14.7621 19.1203 15.7559 18.4681 16.7083 17.5779L17.7021 19.6586C16.8325 20.5489 15.7559 21.2425 14.4722 21.7394C13.1886 22.2156 11.791 22.4537 10.2796 22.4537Z" fill="black"/>
</svg>
