<svg aria-hidden="true" style="position:absolute;width:0;height:0;overflow:hidden" xmlns="http://www.w3.org/2000/svg">
  <defs>
  <symbol id="icon-facebook" viewBox="0 0 32 32">
<path d="M32 16.098c0-8.891-7.163-16.098-16-16.098s-16 7.207-16 16.098c0 8.035 5.851 14.695 13.5 15.902v-11.249h-4.063v-4.653h4.063v-3.547c0-4.035 2.389-6.263 6.043-6.263 1.751 0 3.582 0.314 3.582 0.314v3.962h-2.017c-1.988 0-2.608 1.241-2.608 2.514v3.020h4.437l-0.709 4.653h-3.728v11.249c7.649-1.208 13.5-7.867 13.5-15.902z"></path>
</symbol>
<symbol id="icon-instagram" viewBox="0 0 32 32">
<path d="M10.4 2.667h11.2c4.267 0 7.733 3.467 7.733 7.733v11.2c0 4.271-3.462 7.733-7.733 7.733v0h-11.2c-4.267 0-7.733-3.467-7.733-7.733v-11.2c0-4.271 3.462-7.733 7.733-7.733v0zM10.133 5.333c-2.651 0-4.8 2.149-4.8 4.8v0 11.733c0 2.653 2.147 4.8 4.8 4.8h11.733c2.651 0 4.8-2.149 4.8-4.8v0-11.733c0-2.653-2.147-4.8-4.8-4.8h-11.733zM23 7.333c0.92 0 1.667 0.746 1.667 1.667v0c0 0.92-0.746 1.667-1.667 1.667v0c-0.92 0-1.667-0.746-1.667-1.667v0c0-0.92 0.746-1.667 1.667-1.667v0zM16 9.333c3.682 0 6.667 2.985 6.667 6.667v0c0 3.682-2.985 6.667-6.667 6.667v0c-3.682 0-6.667-2.985-6.667-6.667v0c0-3.682 2.985-6.667 6.667-6.667v0zM16 12c-2.209 0-4 1.791-4 4v0c0 2.209 1.791 4 4 4v0c2.209 0 4-1.791 4-4v0c0-2.209-1.791-4-4-4v0z"></path>
</symbol>
<symbol id="icon-x" viewBox="0 0 36 32">
<path d="M28.352 0h5.52l-12.060 13.555 14.188 18.445h-11.109l-8.701-11.187-9.956 11.187h-5.524l12.899-14.498-13.61-17.502h11.391l7.865 10.225 9.096-10.225zM26.415 28.751h3.059l-19.745-25.672h-3.282l19.968 25.672z"></path>
</symbol>
<symbol id="icon-youtube" viewBox="0 0 45 32">
<path d="M41.828 4.7c-0.243-0.902-0.718-1.724-1.377-2.385s-1.481-1.138-2.382-1.383c-3.341-0.917-16.706-0.932-16.706-0.932s-13.363-0.015-16.706 0.862c-0.9 0.256-1.72 0.74-2.38 1.404s-1.138 1.487-1.388 2.389c-0.881 3.341-0.89 10.27-0.89 10.27s-0.009 6.963 0.866 10.27c0.491 1.828 1.931 3.273 3.761 3.765 3.375 0.917 16.704 0.932 16.704 0.932s13.365 0.015 16.706-0.86c0.901-0.245 1.723-0.72 2.384-1.38s1.139-1.481 1.385-2.381c0.883-3.339 0.89-10.266 0.89-10.266s0.043-6.965-0.868-10.306zM17.088 21.344l0.011-12.8 11.108 6.411-11.119 6.389z"></path>
</symbol>
<symbol id="icon-close" viewBox="0 0 32 32">
<path stroke-linejoin="miter" stroke-linecap="butt" stroke-miterlimit="4" stroke-width="2.2857" d="M27.828 1.143c0.376 0 0.609 0.111 0.792 0.295s0.294 0.416 0.295 0.79c0 0.375-0.111 0.609-0.295 0.792l-12.009 12.009 12.009 12.007c0.184 0.184 0.295 0.417 0.295 0.792s-0.111 0.609-0.295 0.792-0.417 0.295-0.792 0.295c-0.375 0-0.609-0.111-0.792-0.295l-12.007-12.009-12.009 12.009c-0.184 0.184-0.417 0.295-0.792 0.295s-0.607-0.111-0.79-0.295c-0.184-0.184-0.295-0.417-0.295-0.792s0.111-0.609 0.295-0.792l12.007-12.007-12.007-12.009c-0.184-0.184-0.295-0.417-0.295-0.792s0.111-0.607 0.295-0.79 0.415-0.294 0.79-0.295c0.375 0 0.609 0.111 0.792 0.295l12.009 12.007 12.007-12.007c0.184-0.184 0.417-0.295 0.792-0.295z"></path>
</symbol>
<symbol id="icon-arrow-left" viewBox="0 0 19 32">
<path stroke-linejoin="miter" stroke-linecap="butt" stroke-miterlimit="4" stroke-width="2.6667" d="M15.57 1.333c0.269 0 0.474 0.081 0.682 0.289s0.289 0.413 0.289 0.682-0.081 0.474-0.289 0.682l-12.552 12.552 12.552 12.549c0.207 0.207 0.266 0.386 0.258 0.602-0.009 0.251-0.094 0.466-0.323 0.695-0.208 0.208-0.413 0.292-0.682 0.292s-0.474-0.083-0.682-0.292l-13.185-13.182c-0.072-0.072-0.125-0.137-0.164-0.193l-0.078-0.141c-0.040-0.095-0.062-0.201-0.063-0.331 0-0.065 0.005-0.125 0.016-0.18l0.047-0.154c0.031-0.075 0.098-0.189 0.242-0.333l13.253-13.25c0.208-0.208 0.411-0.289 0.68-0.289z"></path>
</symbol>
<symbol id="icon-arrow-right" viewBox="0 0 19 32">
<path stroke-linejoin="miter" stroke-linecap="butt" stroke-miterlimit="4" stroke-width="2.6667" d="M2.339 1.333c0.269 0 0.474 0.081 0.682 0.289l13.185 13.185c0.144 0.144 0.211 0.256 0.242 0.331v0.003c0.039 0.095 0.063 0.201 0.063 0.331s-0.023 0.236-0.063 0.331v0.003c-0.031 0.075-0.099 0.187-0.242 0.331l-13.25 13.25c-0.207 0.207-0.386 0.266-0.602 0.258-0.251-0.009-0.466-0.094-0.695-0.323-0.208-0.208-0.292-0.413-0.292-0.682s0.083-0.474 0.292-0.682l12.484-12.484-12.552-12.552c-0.207-0.207-0.266-0.384-0.258-0.599 0.009-0.251 0.096-0.468 0.326-0.698 0.208-0.208 0.411-0.289 0.68-0.289z"></path>
</symbol>
<symbol id="icon-arrow-top" viewBox="0 0 55 32">
<path stroke-linejoin="miter" stroke-linecap="butt" stroke-miterlimit="4" stroke-width="4.5714" d="M26.406 2.286c0.429 0 0.777 0.129 1.143 0.496l22.598 22.603c0.375 0.375 0.496 0.713 0.496 1.112s-0.121 0.737-0.496 1.112c-0.357 0.357-0.709 0.496-1.169 0.496s-0.809-0.14-1.165-0.496l-0.005-0.004-21.406-21.281-21.397 21.397c-0.355 0.355-0.658 0.455-1.027 0.442-0.431-0.016-0.803-0.16-1.196-0.554-0.357-0.357-0.496-0.708-0.496-1.17s0.138-0.813 0.496-1.17l22.487-22.487c0.366-0.366 0.71-0.495 1.138-0.496z"></path>
</symbol>
<symbol id="icon-arrow-bottom" viewBox="0 0 55 32">
<path stroke-linejoin="miter" stroke-linecap="butt" stroke-miterlimit="4" stroke-width="4.5714" d="M4.009 2.286c0.461 0 0.813 0.139 1.17 0.496l21.286 21.406 21.406-21.406c0.355-0.355 0.659-0.455 1.027-0.442 0.431 0.016 0.803 0.165 1.196 0.558 0.357 0.357 0.496 0.709 0.496 1.17-0 0.46-0.139 0.809-0.496 1.165l-22.487 22.487c-0.248 0.248-0.443 0.366-0.571 0.42-0.162 0.068-0.345 0.107-0.567 0.107-0.112 0-0.214-0.013-0.308-0.031l-0.263-0.076-0.241-0.138c-0.095-0.066-0.203-0.158-0.326-0.281l-22.603-22.598c-0.338-0.338-0.457-0.656-0.442-1.089 0.017-0.491 0.182-0.874 0.558-1.25 0.356-0.356 0.705-0.495 1.165-0.496z"></path>
</symbol>
<symbol id="icon-star-no-fill" viewBox="0 0 34 32">
<path d="M9.382 26.314l6.829-4.082 6.829 4.127-1.835-7.731 6.006-5.227-7.919-0.69-3.081-7.296-3.081 7.263-7.919 0.679 6.006 5.216-1.835 7.741zM16.211 25.758l-8.288 4.999c-0.279 0.169-0.57 0.245-0.872 0.227s-0.571-0.112-0.807-0.282c-0.236-0.169-0.411-0.388-0.525-0.657s-0.138-0.572-0.072-0.911l2.188-9.444-7.31-6.377c-0.265-0.228-0.428-0.486-0.486-0.774s-0.051-0.567 0.022-0.84c0.066-0.273 0.219-0.503 0.459-0.69s0.528-0.297 0.867-0.326l9.665-0.844 3.744-8.921c0.133-0.309 0.334-0.539 0.603-0.69s0.539-0.227 0.812-0.227 0.543 0.076 0.812 0.227c0.269 0.151 0.47 0.381 0.603 0.69l3.744 8.921 9.676 0.844c0.332 0.030 0.617 0.138 0.857 0.326s0.392 0.418 0.459 0.69c0.073 0.273 0.081 0.552 0.022 0.84s-0.221 0.545-0.486 0.774l-7.31 6.377 2.188 9.444c0.066 0.339 0.042 0.643-0.072 0.911s-0.289 0.488-0.525 0.657c-0.236 0.169-0.505 0.263-0.807 0.282s-0.593-0.057-0.873-0.227l-8.288-4.999z"></path>
</symbol>
<symbol id="icon-icon-star-fill" viewBox="0 0 34 32">
<path d="M16.211 25.758l-8.288 4.999c-0.279 0.169-0.57 0.245-0.872 0.227s-0.571-0.112-0.807-0.282c-0.236-0.169-0.411-0.388-0.525-0.657s-0.138-0.572-0.072-0.911l2.188-9.444-7.31-6.377c-0.265-0.228-0.428-0.486-0.486-0.774s-0.051-0.567 0.022-0.84c0.066-0.273 0.219-0.503 0.459-0.69s0.528-0.297 0.867-0.326l9.665-0.844 3.744-8.921c0.133-0.309 0.334-0.539 0.603-0.69s0.539-0.227 0.812-0.227 0.543 0.076 0.812 0.227c0.269 0.151 0.47 0.381 0.603 0.69l3.744 8.921 9.676 0.844c0.332 0.030 0.617 0.138 0.857 0.326s0.392 0.418 0.459 0.69c0.073 0.273 0.081 0.552 0.022 0.84s-0.221 0.545-0.486 0.774l-7.31 6.377 2.188 9.444c0.066 0.339 0.042 0.643-0.072 0.911s-0.289 0.488-0.525 0.657c-0.236 0.169-0.505 0.263-0.807 0.282s-0.593-0.057-0.873-0.227l-8.288-4.999z"></path>
</symbol>
<symbol id="icon-icon-star-half-fill" viewBox="0 0 34 32">
<path d="M16.211 5.415v16.817l6.829 4.127-1.835-7.731 6.006-5.227-7.919-0.69-3.081-7.296zM16.211 25.758l-8.288 4.999c-0.279 0.169-0.57 0.245-0.872 0.227s-0.571-0.112-0.807-0.282c-0.236-0.169-0.411-0.388-0.525-0.657s-0.138-0.572-0.072-0.911l2.188-9.444-7.31-6.377c-0.265-0.228-0.428-0.486-0.486-0.774s-0.051-0.567 0.022-0.84c0.066-0.273 0.219-0.503 0.459-0.69s0.528-0.297 0.867-0.326l9.665-0.844 3.744-8.921c0.133-0.309 0.334-0.539 0.603-0.69s0.539-0.227 0.812-0.227 0.543 0.076 0.812 0.227c0.269 0.151 0.47 0.381 0.603 0.69l3.744 8.921 9.676 0.844c0.332 0.030 0.617 0.138 0.857 0.326s0.392 0.418 0.459 0.69c0.073 0.273 0.081 0.552 0.022 0.84s-0.221 0.545-0.486 0.774l-7.31 6.377 2.188 9.444c0.066 0.339 0.042 0.643-0.072 0.911s-0.289 0.488-0.525 0.657c-0.236 0.169-0.505 0.263-0.807 0.282s-0.593-0.057-0.873-0.227l-8.288-4.999z"></path>
</symbol>
<symbol id="icon-basket" viewBox="0 0 30 32">
<path d="M9.083 30.638c-0.757 0-1.402-0.269-1.935-0.808s-0.8-1.186-0.8-1.943 0.269-1.402 0.808-1.935c0.539-0.533 1.186-0.8 1.943-0.8s1.402 0.269 1.935 0.808c0.533 0.539 0.8 1.187 0.8 1.943s-0.269 1.401-0.808 1.935-1.186 0.8-1.943 0.8zM24.321 30.638c-0.757 0-1.401-0.269-1.935-0.808s-0.8-1.186-0.8-1.943 0.269-1.402 0.808-1.935c0.539-0.533 1.186-0.8 1.943-0.8s1.402 0.269 1.935 0.808c0.533 0.539 0.8 1.187 0.8 1.943s-0.269 1.401-0.808 1.935-1.186 0.8-1.943 0.8zM7.283 5.496l4.036 8.376h10.944l4.58-8.376h-19.56zM6.030 3.010h22.177c0.664 0 1.168 0.3 1.515 0.9s0.349 1.203 0.007 1.81l-4.988 8.993c-0.291 0.494-0.666 0.894-1.124 1.198s-0.965 0.457-1.521 0.457h-11.478l-2.070 3.862h17.38c0.352 0 0.647 0.12 0.886 0.359s0.357 0.535 0.357 0.889c0 0.354-0.119 0.648-0.357 0.884s-0.534 0.354-0.886 0.354h-17.219c-1.115 0-1.917-0.374-2.405-1.121s-0.479-1.581 0.028-2.5l2.411-4.441-5.736-12.166h-1.765c-0.352 0-0.647-0.12-0.886-0.359s-0.357-0.535-0.357-0.889c0-0.354 0.119-0.648 0.357-0.884s0.533-0.354 0.886-0.354h2.554c0.259 0 0.494 0.064 0.705 0.191s0.364 0.307 0.461 0.539l1.068 2.28z"></path>
</symbol>
<symbol id="icon-arrow-back" viewBox="0 0 32 32">
<path stroke-linejoin="miter" stroke-linecap="butt" stroke-miterlimit="4" stroke-width="1.3333" d="M16.010 6.249c0.114 0 0.212 0.035 0.322 0.145 0.11 0.115 0.145 0.217 0.145 0.332-0 0.116-0.035 0.214-0.145 0.324l-8.482 8.482h17.88c0.162 0 0.262 0.047 0.348 0.132 0.083 0.082 0.129 0.177 0.129 0.337s-0.046 0.255-0.129 0.337c-0.085 0.084-0.186 0.131-0.348 0.132h-17.88l8.474 8.473c0.11 0.11 0.147 0.212 0.148 0.335v0.001c0.001 0.089-0.019 0.167-0.074 0.246l-0.069 0.082c-0.107 0.108-0.204 0.143-0.323 0.142-0.126-0.001-0.23-0.041-0.341-0.151l-9.264-9.264c-0.071-0.072-0.105-0.128-0.121-0.167v-0.001c-0.020-0.048-0.031-0.102-0.031-0.165s0.012-0.116 0.031-0.163v-0.001c0.016-0.038 0.050-0.095 0.121-0.167l9.267-9.267c0.121-0.116 0.227-0.152 0.342-0.152z"></path>
</symbol>
<symbol id="icon-arrow-forward" viewBox="0 0 32 32">
<path stroke-linejoin="miter" stroke-linecap="butt" stroke-miterlimit="4" stroke-width="1.3333" d="M15.993 6.253c0.095 0.001 0.177 0.023 0.259 0.081l0.082 0.070 9.264 9.264c0.071 0.072 0.105 0.128 0.121 0.167v0.001c0.020 0.048 0.031 0.102 0.031 0.165s-0.012 0.116-0.031 0.163v0.001c-0.016 0.038-0.050 0.094-0.121 0.167l-9.272 9.264c-0.122 0.12-0.227 0.155-0.337 0.155-0.108-0-0.204-0.033-0.315-0.147l-0.007-0.007-0.069-0.081c-0.056-0.079-0.075-0.157-0.075-0.243s0.020-0.163 0.075-0.242l0.069-0.081 8.482-8.482h-17.88c-0.163-0-0.259-0.047-0.34-0.128h-0.001c-0.081-0.081-0.128-0.179-0.128-0.341s0.046-0.26 0.128-0.341h0.001c0.081-0.081 0.177-0.127 0.34-0.128h17.88l-8.474-8.474c-0.082-0.082-0.124-0.16-0.141-0.246l-0.008-0.090c-0.001-0.12 0.034-0.218 0.141-0.326l0.001-0.001c0.107-0.107 0.205-0.143 0.324-0.142z"></path>
</symbol>
<symbol id="icon-trash" viewBox="0 0 29 32">
<path d="M4.776 31.011c-0.799 0-1.478-0.279-2.038-0.837s-0.84-1.236-0.84-2.031v-23.829h-0.463c-0.405 0-0.745-0.139-1.021-0.416s-0.413-0.619-0.413-1.026c0-0.407 0.138-0.747 0.413-1.019s0.616-0.408 1.021-0.408h6.914c0-0.412 0.138-0.755 0.414-1.031s0.616-0.413 1.021-0.413h8.579c0.405 0 0.745 0.14 1.021 0.419s0.413 0.621 0.413 1.025h6.924c0.405 0 0.745 0.139 1.021 0.416s0.413 0.619 0.413 1.026c0 0.407-0.138 0.747-0.413 1.019s-0.616 0.408-1.021 0.408h-0.463v23.829c0 0.796-0.28 1.473-0.84 2.031s-1.24 0.837-2.038 0.837h-18.603zM23.379 4.313h-18.603v23.829h18.603v-23.829zM10.545 24.601c0.383 0 0.703-0.13 0.958-0.389s0.383-0.578 0.383-0.954v-14.113c0-0.376-0.131-0.694-0.392-0.954s-0.581-0.39-0.959-0.39c-0.387 0-0.708 0.13-0.963 0.39s-0.383 0.578-0.383 0.954v14.113c0 0.376 0.13 0.694 0.39 0.954s0.582 0.389 0.966 0.389zM17.632 24.601c0.379 0 0.697-0.13 0.956-0.389s0.388-0.578 0.388-0.954v-14.113c0-0.376-0.132-0.694-0.395-0.954s-0.585-0.39-0.965-0.39c-0.381 0-0.701 0.13-0.96 0.39s-0.388 0.578-0.388 0.954v14.113c0 0.376 0.133 0.694 0.397 0.954s0.587 0.389 0.966 0.389z"></path>
</symbol>
<symbol id="icon-mobile-menu" viewBox="0 0 47 32">
<path d="M2.097 30.628c-0.592 0-1.089-0.203-1.492-0.608s-0.604-0.91-0.604-1.514c0-0.595 0.201-1.091 0.604-1.489s0.9-0.596 1.492-0.596h40.85c0.592 0 1.092 0.203 1.5 0.608s0.612 0.905 0.612 1.5c0 0.605-0.204 1.106-0.612 1.503s-0.908 0.597-1.5 0.597h-40.85zM2.097 17.41c-0.592 0-1.089-0.203-1.492-0.608s-0.604-0.905-0.604-1.5c0-0.594 0.201-1.091 0.604-1.489s0.9-0.597 1.492-0.597h40.85c0.592 0 1.092 0.203 1.5 0.608s0.612 0.905 0.612 1.5c0 0.594-0.204 1.091-0.612 1.489s-0.908 0.597-1.5 0.597h-40.85zM2.097 4.207c-0.592 0-1.089-0.202-1.492-0.607s-0.604-0.91-0.604-1.514c0-0.595 0.201-1.091 0.604-1.489s0.9-0.597 1.492-0.597h40.85c0.592 0 1.092 0.202 1.5 0.607s0.612 0.905 0.612 1.5c0 0.605-0.204 1.106-0.612 1.504s-0.908 0.596-1.5 0.596h-40.85z"></path>
</symbol>
<symbol id="icon-Divider" viewBox="0 0 1 32">
<path stroke-linejoin="miter" stroke-linecap="butt" stroke-miterlimit="4" stroke-width="1.1429" d="M0.571 0v32"></path>
</symbol>
  </defs>
</svg>
